<?xml version="1.0" encoding="utf-8"?>
<!-- Generator: Adobe Illustrator 24.2.0, SVG Export Plug-In . SVG Version: 6.00 Build 0)  -->
<svg version="1.1" id="Layer_1" xmlns="http://www.w3.org/2000/svg" xmlns:xlink="http://www.w3.org/1999/xlink" x="0px" y="0px"
	 viewBox="0 0 512 512" style="enable-background:new 0 0 512 512;" xml:space="preserve">
<style type="text/css">
	.st0{fill-rule:evenodd;clip-rule:evenodd;fill:#0097A7;}
	.st1{fill-rule:evenodd;clip-rule:evenodd;fill:#00BCD4;}
	.st2{fill:#5A83DF;}
	.st3{fill:#FFB23C;}
	.st4{opacity:0.2;enable-background:new    ;}
</style>
<desc>Created with Sketch.</desc>
<g id="Education">
	<path id="Rectangle" class="st0" d="M283.9,152.4l173.6,136.1c17.4,13.6,20.4,38.8,6.8,56.2c-1.9,2.4-4,4.6-6.4,6.5L283.2,491.3
		c-14.6,11.7-35.4,11.7-50,0.1L57.6,351.1c-17.3-13.8-20.1-39-6.3-56.2c2-2.5,4.2-4.7,6.7-6.6l175.4-136
		C248.3,140.7,269.1,140.8,283.9,152.4z"/>
	<path id="Rectangle_1_" class="st1" d="M283.2,50l204.5,160.4c17.4,13.6,20.4,38.8,6.8,56.2c-1.9,2.4-4,4.6-6.4,6.5L282.2,438.4
		c-14.6,11.7-35.4,11.8-50,0.1L25.4,273.3c-17.3-13.8-20.1-39-6.3-56.2c2-2.5,4.2-4.7,6.7-6.6L232.7,49.9
		C247.6,38.4,268.4,38.4,283.2,50z"/>
</g>
<g>
	<path class="st2" d="M247.3,250.7c12.3,12.5,8.5,36.8-7.8,50.8l-16.5,14.1l-69.3-70.3c-12.3-12.5-8.5-36.8,7.8-50.8l16.5-14.1
		L247.3,250.7z"/>
	<path class="st3" d="M271.4,232.9c-12.3-12.5-8.5-36.8,7.8-50.8l16.5-14.1l69.3,70.3c12.3,12.5,8.5,36.8-7.8,50.8l-16.5,14.1
		L271.4,232.9z"/>
	<path class="st3" d="M260.3,305.3c-16.4,13.9-20.1,38.3-7.8,50.8l12.4,12.6l92.2-78.6c16.4-13.9,20.1-38.3,7.8-50.8l-12.4-12.6
		L260.3,305.3z"/>
	<path class="st2" d="M258.5,178.4c16.4-13.9,20.1-38.3,7.8-50.8L253.8,115l-92.2,78.6c-16.4,13.9-20.1,38.3-7.8,50.8l12.4,12.6
		L258.5,178.4z"/>
	<path class="st4" d="M260.3,305.3c-16.4,13.9-20.1,38.3-7.8,50.8l12.4,12.6l92.2-78.6c16.4-13.9,20.2-39.2,8-51.6l-12-12.2
		L260.3,305.3z"/>
	<path class="st4" d="M258.5,178.4c16.4-13.9,20.1-38.3,7.8-50.8L253.8,115l-92.2,78.6c-16.4,13.9-20.4,38.9-8.1,51.4l12.2,12.5
		L258.5,178.4z"/>
</g>
</svg>
