<?xml version="1.0" encoding="utf-8"?>
<!-- Generator: Adobe Illustrator 24.2.0, SVG Export Plug-In . SVG Version: 6.00 Build 0)  -->
<svg version="1.1" id="Layer_1" xmlns="http://www.w3.org/2000/svg" xmlns:xlink="http://www.w3.org/1999/xlink" x="0px" y="0px"
	 viewBox="0 0 512 512" style="enable-background:new 0 0 512 512;" xml:space="preserve">
<style type="text/css">
	.st0{fill:url(#Path_1_);}
	.st1{fill:#5A83DF;}
	.st2{fill:#FFB23C;}
	.st3{opacity:0.2;}
</style>
<desc>Created with Sketch.</desc>
<g id="Mobile">
	<g id="mobile-logo" transform="translate(17.000000, 14.000000)">
		<linearGradient id="Path_1_" gradientUnits="userSpaceOnUse" x1="2.408115e-07" y1="241.8792" x2="478.4494" y2="241.8792">
			<stop  offset="7.480012e-02" style="stop-color:#78909C"/>
			<stop  offset="0.8824" style="stop-color:#B0BEC5"/>
		</linearGradient>
		<path id="Path" class="st0" d="M388.2,390.2c-96.1,67.1-265,126.6-331.7,72.6c-91.1-73.7-58.3-174.4,1.7-339.4
			c44.6-122.9,73-180.3,300.7-46.6C518.1,170.1,508.3,306.4,388.2,390.2z"/>
	</g>
	<g>
		<path class="st1" d="M247.5,271c21,2.6,34.9,23.8,29.1,44.1l-5.9,20.5l-118.4-14.8c-21-2.6-34.9-23.8-29.1-44.1l5.9-20.5
			L247.5,271z"/>
		<path class="st2" d="M258.1,243.2c-21-2.6-34.9-23.8-29.1-44.1l5.9-20.5l118.4,14.8c21,2.6,34.9,23.8,29.1,44.1l-5.9,20.5
			L258.1,243.2z"/>
		<path class="st2" d="M299.5,306.1c-5.9,20.3,8.1,41.5,29.1,44.1l21.2,2.6l33.2-114.6c5.9-20.3-8.1-41.5-29.1-44.1l-21.2-2.6
			L299.5,306.1z"/>
		<path class="st1" d="M206.1,208.1c5.9-20.3-8.1-41.5-29.1-44.1l-21.2-2.6l-33.2,114.6c-5.9,20.3,8.1,41.5,29.1,44.1l21.2,2.6
			L206.1,208.1z"/>
	</g>
</g>
<path class="st3" d="M299.5,306.1c-5.9,20.3,8.1,41.5,29.1,44.1l21.2,2.6l33.2-114.6c5.9-20.3-8.6-42.3-29.5-44.9l-20.5-2.6
	L299.5,306.1z"/>
<path class="st3" d="M206.1,208.1c5.9-20.3-8.1-41.5-29.1-44.1l-21.2-2.6l-33.2,114.6c-5.9,20.3,8.2,42.2,29.2,44.8l20.9,2.7
	L206.1,208.1z"/>
</svg>
